sfk_cyclingleg_x_-0.1_y_-0.04_states
version=1
nRows=7
nColumns=53
inDegrees=yes

# SIMM Motion File Header:
name sfk_cyclingleg_x_-0.1_y_-0.04_states
datacolumns 53
datarows 7
otherdata 1
range 0.84628649 0.84759674
endheader
time	/jointset/bb/crank_angle/value	/jointset/bb/crank_angle/speed	/jointset/spindle/pedal_angle_r/value	/jointset/spindle/pedal_angle_r/speed	/jointset/ground_pelvis/pelvis_tilt/value	/jointset/ground_pelvis/pelvis_tilt/speed	/jointset/ground_pelvis/pelvis_list/value	/jointset/ground_pelvis/pelvis_list/speed	/jointset/ground_pelvis/pelvis_rotation/value	/jointset/ground_pelvis/pelvis_rotation/speed	/jointset/ground_pelvis/pelvis_tx/value	/jointset/ground_pelvis/pelvis_tx/speed	/jointset/ground_pelvis/pelvis_ty/value	/jointset/ground_pelvis/pelvis_ty/speed	/jointset/ground_pelvis/pelvis_tz/value	/jointset/ground_pelvis/pelvis_tz/speed	/jointset/hip_r/hip_angle_r/value	/jointset/hip_r/hip_angle_r/speed	/jointset/hip_r/hip_adduction_r/value	/jointset/hip_r/hip_adduction_r/speed	/jointset/hip_r/hip_rotation_r/value	/jointset/hip_r/hip_rotation_r/speed	/jointset/knee_r/knee_angle_r/value	/jointset/knee_r/knee_angle_r/speed	/jointset/knee_r/tib_tx_r/value	/jointset/knee_r/tib_tx_r/speed	/jointset/knee_r/tib_ty_r/value	/jointset/knee_r/tib_ty_r/speed	/jointset/tib_pat_r/pat_angle_r/value	/jointset/tib_pat_r/pat_angle_r/speed	/jointset/tib_pat_r/pat_tx_r/value	/jointset/tib_pat_r/pat_tx_r/speed	/jointset/tib_pat_r/pat_ty_r/value	/jointset/tib_pat_r/pat_ty_r/speed	/jointset/ankle_r/ankle_angle_r/value	/jointset/ankle_r/ankle_angle_r/speed	/jointset/subtalar_r/subtalar_angle_r/value	/jointset/subtalar_r/subtalar_angle_r/speed	/jointset/mtp_r/mtp_angle_r/value	/jointset/mtp_r/mtp_angle_r/speed	/forceset/bifemlh_r/activation	/forceset/bifemlh_r/fiber_length	/forceset/bifemsh_r/activation	/forceset/bifemsh_r/fiber_length	/forceset/glut_max2_r/activation	/forceset/glut_max2_r/fiber_length	/forceset/vas_int_r/activation	/forceset/vas_int_r/fiber_length	/forceset/med_gas_r/activation	/forceset/med_gas_r/fiber_length	/forceset/tib_ant_r/activation	/forceset/tib_ant_r/fiber_length
      0.84628649	   -416.46971787	   -480.13863232	    421.99169238	    577.42832119	     -0.00000000	     -0.00000000	     -0.00000000	     -0.00000000	     -0.00000000	     -0.00000000	     -0.10000000	      0.00000000	     -0.04000000	     -0.00000000	      0.00000000	      0.00000000	     76.14879570	   -140.62544502	      4.27449825	      1.84232764	     -1.81167262	     21.57700149	    -93.07753691	    270.14943558	      0.00337464	      0.04260575	     -0.48700370	      0.09370855	     17.57799530	     -1.04881610	      0.03156541	      0.10639380	     -0.02282305	      0.01176333	     22.98574693	    -33.65902186	     -0.00000000	     -0.00000000	      0.00000000	      0.00000000	     -0.08351727	      0.13866159	     -0.08351727	      0.15049729	     -0.08351727	      0.15322279	     -0.08351727	      0.14996531	     -0.08351727	      0.13481018	     -0.08351727	      0.11566487
      0.84664825	   -416.64340935	   -480.13863232	    422.20056358	    577.34489274	     -0.00000000	     -0.00000000	     -0.00000000	     -0.00000000	     -0.00000000	     -0.00000000	     -0.10000000	      0.00000000	     -0.04000000	     -0.00000000	      0.00000000	      0.00000000	     76.09783580	   -141.11312664	      4.27516409	      1.83880941	     -1.80386565	     21.58488809	    -92.97976045	    270.42094293	      0.00339002	      0.04245187	     -0.48696978	      0.09380545	     17.57761629	     -1.04659251	      0.03160390	      0.10640058	     -0.02281880	      0.01171918	     22.97359503	    -33.52433710	     -0.00000000	     -0.00000000	      0.00000000	      0.00000000	     -0.08356384	      0.13865036	     -0.08356384	      0.15053162	     -0.08356384	      0.15320025	     -0.08356384	      0.14991271	     -0.08356384	      0.13481290	     -0.08356384	      0.11567565
      0.84679471	   -416.71373430	   -480.13863232	    422.28512366	    577.31123710	     -0.00000000	     -0.00000000	     -0.00000000	     -0.00000000	     -0.00000000	     -0.00000000	     -0.10000000	      0.00000000	     -0.04000000	     -0.00000000	      0.00000000	      0.00000000	     76.07715281	   -141.31019288	      4.27543331	      1.83737671	     -1.80070392	     21.58806727	    -92.94014441	    270.53050879	      0.00339624	      0.04238939	     -0.48695604	      0.09384450	     17.57746306	     -1.04567030	      0.03161948	      0.10640314	     -0.02281709	      0.01170120	     22.96868879	    -33.46970461	     -0.00000000	     -0.00000000	      0.00000000	      0.00000000	     -0.08358270	      0.13864579	     -0.08358270	      0.15054555	     -0.08358270	      0.15319109	     -0.08358270	      0.14989138	     -0.08358270	      0.13481938	     -0.08358270	      0.11568001
      0.84705611	   -416.83924211	   -480.13863232	    422.43602447	    577.25134889	     -0.00000000	     -0.00000000	     -0.00000000	     -0.00000000	     -0.00000000	     -0.00000000	     -0.10000000	      0.00000000	     -0.04000000	     -0.00000000	      0.00000000	      0.00000000	     76.04016854	   -141.66133756	      4.27591326	      1.83480807	     -1.79506008	     21.59372130	    -92.86940247	    270.72552970	      0.00340730	      0.04227763	     -0.48693150	      0.09391393	     17.57718994	     -1.04399296	      0.03164729	      0.10640742	     -0.02281403	      0.01166898	     22.95995260	    -33.37205933	     -0.00000000	     -0.00000000	      0.00000000	      0.00000000	     -0.08361636	      0.13863762	     -0.08361636	      0.15057047	     -0.08361636	      0.15317470	     -0.08361636	      0.14985329	     -0.08361636	      0.13483789	     -0.08361636	      0.11568776
      0.84741321	   -417.01070038	   -480.13863232	    422.64214730	    577.16990018	     -0.00000000	     -0.00000000	     -0.00000000	     -0.00000000	     -0.00000000	     -0.00000000	     -0.10000000	      0.00000000	     -0.04000000	     -0.00000000	      0.00000000	      0.00000000	     75.98949557	   -142.13988950	      4.27656784	      1.83127477	     -1.78734756	     21.60140478	    -92.77267854	    270.99087604	      0.00342237	      0.04212442	     -0.48689795	      0.09400823	     17.57681755	     -1.04163611	      0.03168529	      0.10641269	     -0.02280987	      0.01162467	     22.94805924	    -33.23836865	     -0.00000000	     -0.00000000	      0.00000000	      0.00000000	     -0.08366233	      0.13862642	     -0.08366233	      0.15060462	     -0.08366233	      0.15315222	     -0.08366233	      0.14980117	     -0.08366233	      0.13494489	     -0.08366233	      0.11569832
      0.84746582	   -417.03595681	   -480.13863232	    422.67250748	    577.15793816	     -0.00000000	     -0.00000000	     -0.00000000	     -0.00000000	     -0.00000000	     -0.00000000	     -0.10000000	      0.00000000	     -0.04000000	     -0.00000000	      0.00000000	      0.00000000	     75.98201682	   -142.21026946	      4.27666416	      1.83075195	     -1.78621124	     21.60253266	    -92.75842275	    271.02985774	      0.00342459	      0.04210180	     -0.48689300	      0.09402207	     17.57676277	     -1.04128254	      0.03169089	      0.10641341	     -0.02280926	      0.01161812	     22.94631134	    -33.21864679	     -0.00000000	     -0.00000000	      0.00000000	      0.00000000	     -0.08366911	      0.13862477	     -0.08366911	      0.15060967	     -0.08366911	      0.15314890	     -0.08366911	      0.14979348	     -0.08366911	      0.13491969	     -0.08366911	      0.11569987
      0.84759674	   -417.09881799	   -480.13863232	    422.74806878	    577.12820542	     -0.00000000	     -0.00000000	     -0.00000000	     -0.00000000	     -0.00000000	     -0.00000000	     -0.10000000	      0.00000000	     -0.04000000	     -0.00000000	      0.00000000	      0.00000000	     75.96338677	   -142.38531405	      4.27690376	      1.82944806	     -1.78338279	     21.60533554	    -92.72293237	    271.12676332	      0.00343010	      0.04204544	     -0.48688069	      0.09405645	     17.57662650	     -1.04039539	      0.03170482	      0.10641514	     -0.02280774	      0.01160177	     22.94196547	    -33.16952877	     -0.00000000	     -0.00000000	      0.00000000	      0.00000000	     -0.08368596	      0.13862065	     -0.08368596	      0.15062222	     -0.08368596	      0.15314063	     -0.08368596	      0.14977434	     -0.08368596	      0.13491125	     -0.08368596	      0.11570372
